<svg xmlns="http://www.w3.org/2000/svg" width="24" height="24" viewBox="0 0 24 24" fill="none"><path d="M11.9756 15.4719H9.98049C8.34409 15.4713 6.73865 15.918 5.33771 16.7637C3.93678 17.6094 2.79366 18.8219 2.03192 20.2702C2.01051 20.0014 1.99986 19.7319 2 19.4622C2 13.9527 6.46608 9.48658 11.9756 9.48658V4L22.45 12.4793L11.9756 20.9585V15.4719ZM9.98049 13.4768H13.9707V16.7768L19.2788 12.4793L13.9707 8.18178V11.4817H11.9756C10.8287 11.4804 9.69498 11.7269 8.65213 12.2044C7.60927 12.6818 6.68187 13.3789 5.93338 14.2479C7.22155 13.7374 8.59484 13.4758 9.98049 13.4768Z" fill="#0E121B"></path></svg>